<svg xmlns="http://www.w3.org/2000/svg" viewBox="0 0 1200 860" width="1200" height="860" role="img" aria-label="落地页工场：出页 + 转化看板">
  <defs>
    <linearGradient id="bg" x1="0" y1="0" x2="1" y2="1">
      <stop offset="0" stop-color="#eef2ff"/>
      <stop offset="0.55" stop-color="#e0e7ff"/>
      <stop offset="1" stop-color="#f5f3ff"/>
    </linearGradient>
    <linearGradient id="accent" x1="0" y1="0" x2="1" y2="0">
      <stop offset="0" stop-color="#6366f1"/>
      <stop offset="1" stop-color="#8b5cf6"/>
    </linearGradient>
    <linearGradient id="chart" x1="0" y1="0" x2="0" y2="1">
      <stop offset="0" stop-color="#6366f1" stop-opacity="0.35"/>
      <stop offset="1" stop-color="#6366f1" stop-opacity="0"/>
    </linearGradient>
    <pattern id="grid" width="32" height="32" patternUnits="userSpaceOnUse">
      <path d="M32 0H0V32" fill="none" stroke="#c7d2fe" stroke-width="1" stroke-opacity="0.55"/>
    </pattern>
    <filter id="card" x="-20%" y="-20%" width="140%" height="150%">
      <feDropShadow dx="0" dy="14" stdDeviation="18" flood-color="#312e81" flood-opacity="0.18"/>
    </filter>
    <filter id="soft" x="-30%" y="-30%" width="160%" height="180%">
      <feDropShadow dx="0" dy="8" stdDeviation="12" flood-color="#312e81" flood-opacity="0.14"/>
    </filter>
  </defs>

  <rect width="1200" height="860" rx="28" fill="url(#bg)"/>
  <rect x="0" y="0" width="1200" height="860" rx="28" fill="url(#grid)" opacity="0.5"/>
  <circle cx="1080" cy="140" r="180" fill="#818cf8" opacity="0.16"/>
  <circle cx="150" cy="740" r="150" fill="#a78bfa" opacity="0.14"/>

  <!-- 浏览器窗口 -->
  <g filter="url(#card)">
    <rect x="86" y="92" width="1028" height="600" rx="20" fill="#ffffff"/>
    <rect x="86" y="92" width="1028" height="54" rx="20" fill="#f8fafc"/>
    <rect x="86" y="126" width="1028" height="20" fill="#f8fafc"/>
    <circle cx="120" cy="119" r="7" fill="#fca5a5"/>
    <circle cx="144" cy="119" r="7" fill="#fcd34d"/>
    <circle cx="168" cy="119" r="7" fill="#86efac"/>
    <rect x="200" y="106" width="420" height="26" rx="13" fill="#eef2f7"/>
    <text x="216" y="124" font-family="ui-sans-serif,-apple-system,Segoe UI,Roboto,'PingFang SC','Microsoft YaHei',sans-serif" font-size="13" fill="#64748b">nownexts.com/webflow/p/2a94240d8a58</text>
    <rect x="1000" y="104" width="94" height="30" rx="15" fill="url(#accent)"/>
    <text x="1047" y="124" text-anchor="middle" font-family="ui-sans-serif,-apple-system,'PingFang SC',sans-serif" font-size="13" fill="#ffffff">已发布</text>
  </g>

  <!-- 左:落地页画布 -->
  <g>
    <rect x="120" y="176" width="560" height="482" rx="14" fill="#ffffff" stroke="#e2e8f0"/>
    <rect x="120" y="176" width="560" height="44" rx="14" fill="#f1f5f9"/>
    <rect x="144" y="192" width="70" height="12" rx="6" fill="#334155"/>
    <rect x="470" y="190" width="46" height="16" rx="8" fill="#cbd5e1"/>
    <rect x="524" y="190" width="46" height="16" rx="8" fill="#cbd5e1"/>
    <rect x="578" y="190" width="78" height="16" rx="8" fill="url(#accent)"/>

    <rect x="152" y="252" width="300" height="24" rx="8" fill="#1e293b"/>
    <rect x="152" y="288" width="392" height="16" rx="8" fill="#cbd5e1"/>
    <rect x="152" y="312" width="336" height="16" rx="8" fill="#e2e8f0"/>
    <rect x="152" y="352" width="168" height="38" rx="19" fill="url(#accent)"/>
    <text x="236" y="377" text-anchor="middle" font-family="ui-sans-serif,-apple-system,'PingFang SC',sans-serif" font-size="14" fill="#ffffff">预约免费诊断</text>
    <rect x="332" y="352" width="128" height="38" rx="19" fill="#ffffff" stroke="#cbd5e1"/>
    <rect x="356" y="368" width="80" height="8" rx="4" fill="#94a3b8"/>

    <rect x="152" y="418" width="496" height="1" fill="#eef2f7"/>
    <g>
      <rect x="152" y="440" width="152" height="104" rx="12" fill="#f8fafc" stroke="#e2e8f0"/>
      <rect x="168" y="458" width="28" height="28" rx="8" fill="#e0e7ff"/>
      <rect x="168" y="498" width="96" height="10" rx="5" fill="#94a3b8"/>
      <rect x="168" y="516" width="120" height="8" rx="4" fill="#e2e8f0"/>
    </g>
    <g>
      <rect x="324" y="440" width="152" height="104" rx="12" fill="#f8fafc" stroke="#e2e8f0"/>
      <rect x="340" y="458" width="28" height="28" rx="8" fill="#ede9fe"/>
      <rect x="340" y="498" width="96" height="10" rx="5" fill="#94a3b8"/>
      <rect x="340" y="516" width="120" height="8" rx="4" fill="#e2e8f0"/>
    </g>
    <g>
      <rect x="496" y="440" width="152" height="104" rx="12" fill="#f8fafc" stroke="#e2e8f0"/>
      <rect x="512" y="458" width="28" height="28" rx="8" fill="#dcfce7"/>
      <rect x="512" y="498" width="96" height="10" rx="5" fill="#94a3b8"/>
      <rect x="512" y="516" width="120" height="8" rx="4" fill="#e2e8f0"/>
    </g>
    <rect x="152" y="574" width="496" height="56" rx="12" fill="#eef2ff"/>
    <rect x="176" y="596" width="180" height="12" rx="6" fill="#6366f1" opacity="0.55"/>
    <rect x="440" y="590" width="184" height="26" rx="13" fill="#6366f1"/>
  </g>

  <!-- 右:转化看板 -->
  <g filter="url(#soft)">
    <rect x="714" y="210" width="392" height="286" rx="16" fill="#111827"/>
    <text x="742" y="248" font-family="ui-sans-serif,-apple-system,'PingFang SC',sans-serif" font-size="14" fill="#94a3b8">实时转化 · 近 30 分钟</text>
    <text x="742" y="300" font-family="ui-sans-serif,-apple-system,'PingFang SC',sans-serif" font-size="40" font-weight="700" fill="#ffffff">12.4%</text>
    <rect x="884" y="272" width="96" height="28" rx="14" fill="#065f46"/>
    <text x="932" y="291" text-anchor="middle" font-family="ui-sans-serif,-apple-system,sans-serif" font-size="13" fill="#6ee7b7">+3.5× ↑</text>

    <path d="M742 452 L794 430 L846 438 L898 396 L950 372 L1002 336 L1054 316 L1078 300" fill="none" stroke="#818cf8" stroke-width="3.5" stroke-linecap="round" stroke-linejoin="round"/>
    <path d="M742 452 L794 430 L846 438 L898 396 L950 372 L1002 336 L1054 316 L1078 300 L1078 470 L742 470 Z" fill="url(#chart)"/>
    <circle cx="1078" cy="300" r="6" fill="#a5b4fc"/>
    <g font-family="ui-sans-serif,-apple-system,'PingFang SC',sans-serif" font-size="12" fill="#64748b">
      <text x="742" y="486">0</text>
      <text x="1046" y="486">time</text>
    </g>
  </g>

  <!-- 浮动小卡:曝光/点击/线索 -->
  <g filter="url(#soft)">
    <rect x="714" y="516" width="392" height="142" rx="16" fill="#ffffff"/>
    <g font-family="ui-sans-serif,-apple-system,'PingFang SC',sans-serif">
      <text x="742" y="552" font-size="13" fill="#64748b">曝光</text>
      <text x="742" y="584" font-size="26" font-weight="700" fill="#0f172a">18,240</text>
      <text x="888" y="552" font-size="13" fill="#64748b">点击</text>
      <text x="888" y="584" font-size="26" font-weight="700" fill="#0f172a">2,261</text>
      <text x="1034" y="552" font-size="13" fill="#64748b">线索</text>
      <text x="1034" y="584" font-size="26" font-weight="700" fill="#0f172a">283</text>
    </g>
    <rect x="742" y="604" width="336" height="34" rx="10" fill="#f1f5f9"/>
    <circle cx="760" cy="621" r="7" fill="#22c55e"/>
    <text x="776" y="626" font-family="ui-sans-serif,-apple-system,'PingFang SC',sans-serif" font-size="13" fill="#334155">A/B 已自动择优（显著性 p&lt;0.05）</text>
  </g>

  <!-- 角落徽标 -->
  <g filter="url(#soft)">
    <rect x="120" y="700" width="248" height="72" rx="16" fill="#ffffff"/>
    <circle cx="156" cy="736" r="20" fill="#eef2ff"/>
    <text x="156" y="742" text-anchor="middle" font-size="18">⚡</text>
    <text x="188" y="730" font-family="ui-sans-serif,-apple-system,'PingFang SC',sans-serif" font-size="15" font-weight="600" fill="#0f172a">5 分钟出页</text>
    <text x="188" y="752" font-family="ui-sans-serif,-apple-system,'PingFang SC',sans-serif" font-size="12.5" fill="#64748b">模块化拼装 · 无需开发</text>
  </g>
  <g filter="url(#soft)">
    <rect x="392" y="700" width="264" height="72" rx="16" fill="#ffffff"/>
    <circle cx="428" cy="736" r="20" fill="#f5f3ff"/>
    <text x="428" y="742" text-anchor="middle" font-size="18">🎯</text>
    <text x="460" y="730" font-family="ui-sans-serif,-apple-system,'PingFang SC',sans-serif" font-size="15" font-weight="600" fill="#0f172a">千人对千面</text>
    <text x="460" y="752" font-family="ui-sans-serif,-apple-system,'PingFang SC',sans-serif" font-size="12.5" fill="#64748b">按来源/登录态换内容</text>
  </g>
  <g filter="url(#soft)">
    <rect x="680" y="700" width="264" height="72" rx="16" fill="#ffffff"/>
    <circle cx="716" cy="736" r="20" fill="#ecfdf5"/>
    <text x="716" y="742" text-anchor="middle" font-size="18">🔗</text>
    <text x="748" y="730" font-family="ui-sans-serif,-apple-system,'PingFang SC',sans-serif" font-size="15" font-weight="600" fill="#0f172a">跨系统打通</text>
    <text x="748" y="752" font-family="ui-sans-serif,-apple-system,'PingFang SC',sans-serif" font-size="12.5" fill="#64748b">线索→OpenFlow·收款→PayFlow</text>
  </g>
</svg>
